# xmcd
#
# Track frame offsets: 
#        150
#        13177
#        21890
#        33198
#        43405
#        53504
#        64335
#        76508
#        83490
#        93180
#        104287
#        116717
#
# Disc length: 1661 seconds
#
# Revision: 0
# Processed by: cddbd v1.5.1PL0 Copyright (c) Steve Scherf et al.
# Submitted via: ExactAudioCopy v0.95a5
#
DISCID=88067b0c
DTITLE=Johnny Cash - Johnny Cash American Classics Vol 3
DYEAR=2004
DGENRE=Country
TTITLE0=Folsom Prison Blues
TTITLE1=Guess Things Happen That Way
TTITLE2=I Heard That Lonesome Whistle Blow
TTITLE3=Born To Lose
TTITLE4=The Story Of A Broken Heart
TTITLE5=Cold, Cold Heart
TTITLE6=Wide Open Road
TTITLE7=You're My Baby
TTITLE8=I Couldn't Keep You From Crying
TTITLE9=Fools Hall Of Fame
TTITLE10=Home Of The Blues
TTITLE11=If The Good Lord's Willing
EXTD=
EXTT0=
EXTT1=
EXTT2=
EXTT3=
EXTT4=
EXTT5=
EXTT6=
EXTT7=
EXTT8=
EXTT9=
EXTT10=
EXTT11=
PLAYORDER=
